<?xml version="1.0" standalone="no"?>
<!DOCTYPE svg PUBLIC "-//W3C//DTD SVG 20010904//EN"
 "http://www.w3.org/TR/2001/REC-SVG-20010904/DTD/svg10.dtd">
<svg version="1.0" xmlns="http://www.w3.org/2000/svg"
 width="571.000000pt" height="289.000000pt" viewBox="0 0 571.000000 289.000000"
 preserveAspectRatio="xMidYMid meet">
<metadata>
Created by potrace 1.13, written by Peter Selinger 2001-2015
</metadata>
<g transform="translate(0.000000,289.000000) scale(0.100000,-0.100000)"
fill="#000000" stroke="none">
<path d="M555 1302 c-92 -28 -144 -59 -211 -126 -75 -75 -108 -137 -131 -250
-17 -83 -17 -89 0 -174 33 -159 128 -277 283 -349 56 -26 67 -28 199 -28 l140
0 70 37 c79 41 108 68 99 92 -9 24 -27 20 -89 -19 -79 -51 -192 -73 -289 -57
-345 58 -482 445 -248 704 76 84 241 147 350 133 70 -9 150 -37 200 -70 45
-30 77 -30 77 0 0 25 -80 79 -150 101 -77 25 -227 28 -300 6z"/>
<path d="M1507 1294 c-4 -4 -7 -67 -7 -141 l0 -133 -55 0 c-52 0 -55 -1 -55
-25 0 -24 3 -25 55 -25 l55 0 0 -256 c0 -245 1 -258 22 -295 16 -29 30 -40 54
-45 74 -14 94 17 31 50 -21 11 -40 29 -43 40 -2 12 -3 129 -2 261 l3 240 55 5
c47 4 55 8 55 25 0 17 -8 21 -55 25 l-55 5 -5 135 c-5 126 -6 135 -25 138 -12
2 -24 0 -28 -4z"/>
<path d="M3018 1193 c-47 -59 -94 -118 -104 -129 -11 -12 -30 -36 -44 -54 -14
-19 -74 -95 -135 -169 -145 -180 -195 -246 -195 -258 0 -20 33 -23 290 -23
l259 0 3 -92 c3 -92 3 -93 28 -93 25 0 25 1 28 93 l3 92 43 0 c31 0 46 5 50
16 10 26 -13 44 -55 44 l-39 0 -2 338 c-4 411 2 401 -130 235z m72 -293 l0
-280 -225 0 c-124 0 -225 2 -225 5 0 7 440 555 446 555 2 0 4 -126 4 -280z"/>
<path d="M3675 1258 c-9 -24 -34 -90 -56 -148 -21 -58 -61 -166 -89 -240 -28
-74 -62 -164 -75 -200 -24 -66 -64 -173 -84 -223 -18 -45 -14 -77 8 -77 27 0
37 20 93 183 l20 57 223 0 223 0 22 -62 c52 -147 66 -173 91 -173 33 0 30 17
-25 160 -26 66 -60 156 -76 200 -16 44 -52 141 -80 215 -85 224 -92 243 -110
295 -14 40 -22 51 -42 53 -22 3 -28 -3 -43 -40z m67 -125 c16 -49 24 -71 116
-314 29 -75 52 -139 52 -142 0 -4 -88 -7 -195 -7 -107 0 -195 2 -195 5 0 3 25
72 56 153 31 81 69 181 84 222 57 155 58 155 82 83z"/>
<path d="M1187 1013 c-4 -3 -7 -150 -7 -325 l0 -318 24 0 c15 0 26 7 28 17 2
9 2 155 0 325 -2 289 -4 308 -21 308 -10 0 -21 -3 -24 -7z"/>
<path d="M1850 795 c0 -243 3 -261 56 -330 78 -103 242 -126 355 -49 28 19 53
34 55 34 11 0 2 -80 -13 -122 -47 -131 -192 -199 -324 -153 -40 15 -45 14 -56
-1 -18 -24 -2 -39 59 -60 147 -49 331 50 378 204 18 58 20 93 20 367 0 167 -3
310 -6 319 -3 9 -14 16 -24 16 -10 0 -21 -7 -24 -16 -3 -9 -6 -106 -6 -216 0
-188 -1 -204 -22 -245 -29 -57 -64 -87 -129 -108 -66 -22 -138 -9 -191 35 -67
55 -72 79 -78 325 -5 219 -5 220 -27 223 l-23 3 0 -226z"/>
<path d="M4318 1011 c-74 -24 -155 -100 -191 -180 -17 -36 -21 -66 -22 -136 0
-79 4 -97 28 -147 59 -120 175 -187 304 -175 77 8 123 28 176 79 22 21 42 38
44 38 1 0 3 -30 3 -67 0 -50 -6 -81 -24 -118 -27 -58 -53 -84 -120 -119 -57
-30 -136 -35 -193 -11 -44 19 -66 13 -61 -17 5 -32 95 -62 170 -55 77 7 170
57 218 118 65 83 71 127 68 484 l-3 310 -25 0 c-23 0 -25 -4 -28 -57 -2 -32
-4 -58 -6 -58 -1 0 -21 17 -43 38 -22 21 -57 47 -79 57 -44 21 -172 30 -216
16z m199 -73 c84 -39 143 -141 143 -245 0 -129 -85 -238 -206 -263 -84 -18
-154 6 -220 75 -56 59 -74 106 -74 192 0 201 182 324 357 241z"/>
<path d="M5124 1011 c-39 -10 -100 -47 -135 -81 -124 -123 -120 -368 8 -481
70 -61 109 -74 218 -74 91 0 104 3 146 27 55 32 119 101 119 127 0 38 -29 31
-76 -19 -109 -115 -264 -119 -374 -10 -35 36 -54 65 -65 102 -28 96 -54 88
275 88 l290 0 -1 33 c0 48 -39 141 -80 189 -55 66 -124 99 -217 104 -42 2 -91
0 -108 -5z m148 -55 c89 -21 171 -101 193 -189 l7 -27 -257 0 -257 0 7 37 c14
78 94 155 183 179 60 16 57 16 124 0z"/>
</g>
</svg>
